<svg
  class="w-full h-full"
  width="118"
  height="102"
  viewBox="0 0 118 102"
  xmlns="http://www.w3.org/2000/svg"
>
  <path
    d="M1 99.5C8.82992 85.7193 24.105 58.9022 26.2538 55.3807L34 67L24.75 83.25L15.5 99.5H1Z"
    fill="currentColor"
  />
  <path
    d="M26.5 55C26.1 55.4 9.33333 84.8333 1 99.5H15.5L24.75 83.25L34 67L26 55"
    stroke="currentColor"
    fill="none"
  />
  <path
    d="M37 99.5C34.8333 95.6667 30.4 87.9 30 87.5H61.5L35 43L58.5 1L83 42L76 55.5L58.5 26L49.5 42L83 99.5H37Z"
    fill="currentColor"
    stroke="currentColor"
  />
  <path
    d="M117 101L91 55L83 68L102 101H117Z"
    fill="currentColor"
    stroke="currentColor"
  />
</svg>
