<svg width="667" height="72" viewBox="0 0 667 72" fill="none" xmlns="http://www.w3.org/2000/svg">
<path d="M22.9845 39.8624C6.61508 8.25402 -1.56963 -7.55017 1.53727 -20.2916C3.24941 -27.3131 7.09321 -33.6324 12.5408 -38.3817C22.4262 -47 40.224 -47 75.8196 -47H591.861C627.558 -47 645.406 -47 655.298 -38.3584C660.749 -33.5967 664.589 -27.2624 666.29 -20.2277C669.378 -7.46079 661.124 8.36449 644.617 40.0151C637.954 52.7904 634.622 59.178 629.49 63.5761C626.587 66.0642 623.295 68.0598 619.747 69.4835C613.474 72 606.27 72 591.861 72H75.8196C61.3666 72 54.14 72 47.8527 69.4703C44.2959 68.0392 40.9984 66.0335 38.092 63.5332C32.9543 59.1135 29.631 52.6965 22.9845 39.8624Z" fill="#191919"/>
</svg>
